Coordinates
version=1
nRows=26
nColumns=24
inDegrees=yes

Units are S.I. units (second, meters, Newtons, ...)
Angles are in degrees.

endheader
time	pelvis_tilt	pelvis_list	pelvis_rotation	pelvis_tx	pelvis_ty	pelvis_tz	hip_flexion_r	hip_adduction_r	hip_rotation_r	knee_angle_r	ankle_angle_r	subtalar_angle_r	mtp_angle_r	hip_flexion_l	hip_adduction_l	hip_rotation_l	knee_angle_l	ankle_angle_l	subtalar_angle_l	mtp_angle_l	lumbar_extension	lumbar_bending	lumbar_rotation
      4.83000000	    -11.86303261	      6.98369029	      5.62909227	     -1.76968127	     -0.03328892	      2.02462218	     17.30793511	    -13.14614457	    -12.12990068	    -60.85559367	    -22.10751392	     -8.43160763	     25.02924401	     28.65446057	     12.98611871	     -5.43235664	    -21.84249644	     -2.79667939	     -6.37421343	     18.56995551	      8.27820772	     -8.78737926	     -3.73081879
      4.84000000	    -11.87370433	      6.99916685	      5.48595313	     -1.75770465	     -0.03140915	      2.02401791	     19.25248096	    -12.90609546	    -10.98461221	    -62.40301983	    -20.22575127	     -9.89185860	     21.57349253	     27.53160845	     12.91249658	     -5.65798333	    -21.26046912	     -2.37862935	     -6.06597905	     20.05201390	      8.19079043	     -8.77663149	     -3.85595385
      4.85000000	    -11.84514101	      7.00784209	      5.37156935	     -1.74573401	     -0.02954641	      2.02330858	     21.09340134	    -12.66268992	     -9.93139605	    -63.58124600	    -18.63931368	    -10.92627770	     20.05565899	     26.31075384	     12.89828235	     -5.65179377	    -20.63767240	     -1.70703749	     -5.72343296	     19.95164361	      8.06851866	     -8.74973434	     -4.00216774
      4.86000000	    -11.70626736	      7.02381674	      5.29040492	     -1.73380808	     -0.02758336	      2.02248991	     22.73052002	    -12.43642255	     -9.01582104	    -64.37003433	    -17.35376735	    -11.72135010	     20.06068682	     24.89071699	     12.96109435	     -5.40119267	    -19.84535652	     -1.32962018	     -5.80632950	     19.81215268	      7.82358626	     -8.71637719	     -4.19895637
      4.87000000	    -11.69619607	      6.92740632	      5.22192579	     -1.72196292	     -0.02589914	      2.02160169	     24.47210780	    -12.08177137	     -8.16697255	    -64.87372581	    -16.05352706	    -12.10689474	     19.97088516	     23.64890855	     12.94390903	     -5.01447077	    -19.15253335	     -0.64674255	     -5.81974044	     18.38750386	      7.72993564	     -8.56704834	     -4.35800238
      4.88000000	    -11.60659108	      6.69118021	      5.30892346	     -1.71014168	     -0.02414787	      2.02058940	     25.95078542	    -11.63600308	     -7.60879005	    -64.97314016	    -14.65542671	    -12.10419985	     20.40346337	     22.32061564	     12.81308194	     -4.52834652	    -18.43387021	     -0.20255257	     -5.81032147	     18.27763689	      7.54190436	     -8.30217583	     -4.71487675
      4.89000000	    -11.44315297	      6.47147925	      5.42930435	     -1.69841538	     -0.02244572	      2.01937560	     27.23389850	    -11.27887925	     -7.19844899	    -64.67585065	    -13.61515518	    -12.07617122	     23.81807064	     20.92731124	     12.72948568	     -3.94763694	    -17.76762973	      0.44503169	     -5.82446341	     16.67416666	      7.26222246	     -8.03288203	     -5.10958470
      4.90000000	    -11.38895087	      6.15260166	      5.59055705	     -1.68674598	     -0.02093252	      2.01827689	     28.55636387	    -10.81357376	     -6.89288051	    -64.14852669	    -12.11656816	    -11.63909428	     24.48075290	     19.68645202	     12.50546533	     -3.49774344	    -17.09410627	      0.84000256	     -5.76304351	     16.59448616	      7.11013064	     -7.69558795	     -5.48468604
      4.91000000	    -11.22912808	      5.74243154	      5.78344411	     -1.67518279	     -0.01935449	      2.01700375	     29.62290764	    -10.31416972	     -6.76550145	    -63.18489187	    -11.13030448	    -11.33580006	     27.46866232	     18.34694407	     12.19547767	     -2.95306355	    -16.44423601	      1.35699463	     -5.70190652	     15.86051379	      6.83816080	     -7.23939309	     -5.88697590
      4.92000000	    -11.11214773	      5.30512534	      6.04990392	     -1.66372294	     -0.01796180	      2.01574094	     30.64883061	     -9.83149006	     -6.77939945	    -62.02404706	     -9.90869862	    -10.82299872	     27.85593654	     17.07383351	     11.84909641	     -2.44237191	    -15.78272974	      1.70818664	     -5.66198448	     15.79775828	      6.59830488	     -6.78057772	     -6.34217978
      4.93000000	    -11.05665595	      4.85143796	      6.35260967	     -1.65233126	     -0.01681642	      2.01447480	     31.64861702	     -9.38574547	     -6.91030707	    -60.60954993	     -8.85146528	    -10.33582732	     28.04054025	     15.90019779	     11.46879910	     -2.02027558	    -15.15859133	      2.11462563	     -5.49311731	     15.79889987	      6.42202892	     -6.31983247	     -6.79390468
      4.94000000	    -10.92982339	      4.35320502	      6.71072923	     -1.64097479	     -0.01570417	      2.01316544	     32.43521216	     -8.94233016	     -7.20517975	    -58.88988272	     -8.03113142	     -9.98976849	     27.99354282	     14.65501262	     11.03352311	     -1.52357066	    -14.52452280	      2.50499904	     -5.34631404	     15.77269683	      6.16755954	     -5.81254514	     -7.28614999
      4.95000000	    -10.70981449	      3.87209350	      7.00359899	     -1.62961007	     -0.01463791	      2.01201752	     33.01836141	     -8.46859978	     -7.49905528	    -56.91245908	     -7.32575424	     -9.74868707	     27.31955194	     13.29624487	     10.56874613	     -1.05071154	    -13.84183475	      2.87436893	     -5.26260074	     15.59140939	      5.82053166	     -5.30605357	     -7.68582189
      4.96000000	    -10.70880454	      3.38316341	      7.41542341	     -1.61830369	     -0.01403881	      2.01076055	     33.72799482	     -8.11375602	     -7.95315509	    -54.73944297	     -6.63342625	     -9.43540329	     26.73624743	     12.22733805	     10.12109708	     -0.57781106	    -13.24355672	      3.30674130	     -5.03922503	     15.50859897	      5.70466403	     -4.83555255	     -8.18106361
      4.97000000	    -10.63257217	      2.97245869	      7.63194775	     -1.60694139	     -0.01354395	      2.00988297	     34.31126983	     -7.67440305	     -8.18267840	    -52.44681260	     -5.63997695	     -8.93906825	     23.31994069	     11.04774515	      9.68700836	     -0.21699225	    -12.59189090	      3.82011311	     -4.86439726	     14.64485209	      5.51933669	     -4.41931583	     -8.43428545
      4.98000000	    -10.62869803	      2.54639959	      7.94415142	     -1.59563292	     -0.01329550	      2.00885359	     34.82905219	     -7.36317650	     -8.65650200	    -49.84724769	     -5.09117393	     -8.58091348	     22.77130853	      9.96971152	      9.25153646	      0.15601179	    -11.94553722	      4.20331347	     -4.72526918	     14.53878741	      5.40307015	     -4.00277470	     -8.80851450
      4.99000000	    -10.61129843	      2.23495975	      8.08847681	     -1.58423588	     -0.01326647	      2.00815696	     35.30586889	     -7.04840832	     -8.93565906	    -47.21307845	     -4.17362819	     -7.82681521	     19.56816915	      8.85721878	      8.88142839	      0.33212983	    -11.29289247	      4.71518467	     -4.48527071	     13.73754133	      5.27605492	     -3.68537769	     -8.96029764
      5.00000000	    -10.69881296	      1.91453142	      8.30321969	     -1.57287215	     -0.01350859	      2.00737695	     35.78294253	     -6.85333193	     -9.46859441	    -44.33181540	     -3.79200631	     -7.13185194	     19.30290679	      7.88885630	      8.51569772	      0.47096146	    -10.66479255	      5.09846584	     -4.25051129	     13.70530663	      5.25394079	     -3.38003246	     -9.20237094
      5.01000000	    -10.73273023	      1.65737716	      8.40634744	     -1.56142619	     -0.01389062	      2.00677315	     36.14959080	     -6.67078827	     -9.99460622	    -41.36189955	     -3.45882931	     -6.10678951	     19.05650534	      6.83783259	      8.18277075	      0.46157785	    -10.00195963	      5.50318714	     -4.00249846	     13.60340626	      5.17715502	     -3.11452711	     -9.34797142
      5.02000000	    -10.82724295	      1.41305744	      8.47006177	     -1.54996310	     -0.01451370	      2.00631357	     36.52230490	     -6.49083052	    -10.57745652	    -38.31088539	     -3.18530072	     -4.79744926	     19.13885380	      5.88584242	      7.85862110	      0.34007931	     -9.39933438	      5.92591390	     -3.72064976	     13.49674512	      5.16103620	     -2.87251391	     -9.42572890
      5.03000000	    -10.79421377	      1.09248310	      8.46717650	     -1.53840683	     -0.01507059	      2.00601484	     36.65150080	     -6.16254423	    -11.23899778	    -35.09317784	     -3.08521823	     -3.36329788	     20.02937296	      4.82625992	      7.41358637	      0.08272961	     -8.83973732	      6.44129111	     -3.32224854	     13.29092239	      5.02764591	     -2.52570527	     -9.43133121
      5.04000000	    -10.80410993	      0.73926527	      8.44137170	     -1.52691799	     -0.01576821	      2.00579787	     36.75335820	     -5.79629864	    -11.99953972	    -31.79786641	     -3.10835595	     -1.73096627	     22.08706058	      3.90144397	      6.93068932	     -0.37858029	     -8.42294725	      7.03352107	     -2.72385488	     13.17343370	      4.92719489	     -2.14689624	     -9.42872632
      5.05000000	    -11.03203662	      0.48688695	      8.30508407	     -1.51559166	     -0.01685108	      2.00569775	     37.07663111	     -5.49908419	    -12.71041363	    -28.53052990	     -3.25195702	      0.04335368	     25.84717423	      3.28077737	      6.60856947	     -0.96114974	     -8.12273234	      7.45187938	     -2.38276722	     13.08959891	      5.01994478	     -1.87903429	     -9.28474761
      5.06000000	    -11.24350643	      0.20725855	      8.15568458	     -1.50421099	     -0.01801242	      2.00579601	     37.31612273	     -5.10085691	    -13.35214089	    -25.37943086	     -2.83831587	      1.93230750	     26.05055042	      2.72572161	      6.23559358	     -1.70543062	     -7.98375642	      7.95011318	     -1.83362120	     13.21510535	      5.09800065	     -1.59436265	     -9.13597636
      5.07000000	    -11.29888782	     -0.11329564	      7.96718566	     -1.49265167	     -0.01908509	      2.00605672	     37.24632012	     -4.55965353	    -13.94235879	    -22.12241391	     -2.53785438	      3.46186973	     26.11541167	      2.05222894	      5.77752378	     -2.50551025	     -7.96828880	      8.51432433	     -1.17897280	     13.33496678	      5.02946076	     -1.23865839	     -8.96673453
      5.08000000	    -11.25009911	     -0.37899024	      7.82057084	     -1.48074031	     -0.02020954	      2.00646193	     36.90460600	     -4.02203411	    -14.52235322	    -18.80000413	     -2.31120093	      4.59118869	     25.64666385	      1.26906406	      5.34641530	     -3.26185191	     -8.02339841	      9.02425959	     -0.51010743	     13.37530143	      4.88401373	     -0.95670850	     -8.78188911
